<?xml version="1.0" encoding="iso-8859-1"?>
<!-- Generator: Adobe Illustrator 17.0.0, SVG Export Plug-In . SVG Version: 6.00 Build 0)  -->
<!DOCTYPE svg PUBLIC "-//W3C//DTD SVG 1.1//EN" "http://www.w3.org/Graphics/SVG/1.1/DTD/svg11.dtd">
<svg version="1.1" id="&#x56FE;&#x5C42;_1" xmlns="http://www.w3.org/2000/svg" xmlns:xlink="http://www.w3.org/1999/xlink" x="0px"
	 y="0px" width="14px" height="14px" viewBox="0 0 14 14" style="enable-background:new 0 0 14 14;" xml:space="preserve">
<g>
	<polygon style="fill:#F45656;" points="13,5 7,5 3,5 3,13 8,13 8,12 4,12 4,6 12,6 12,7.906 13,7.906 	"/>
	<polygon style="fill:#F45656;" points="1,3 9,3 9,4 10,4 10,2 0,2 0,10 2,10 2,9 1,9 	"/>
	<rect x="4" y="12" style="fill:#F45656;" width="4" height="0.667"/>
	<g>
		
			<rect x="8.525" y="11.025" transform="matrix(0.7071 -0.7071 0.7071 0.7071 -4.7739 11.5251)" style="fill:#F45656;" width="6" height="1"/>
		
			<rect x="8.525" y="11.025" transform="matrix(-0.7071 -0.7071 0.7071 -0.7071 11.5251 27.8241)" style="fill:#F45656;" width="6" height="1"/>
	</g>
</g>
</svg>
